<?xml version="1.0" standalone="no"?>
<!DOCTYPE svg PUBLIC "-//W3C//DTD SVG 20010904//EN"
 "http://www.w3.org/TR/2001/REC-SVG-20010904/DTD/svg10.dtd">
<svg version="1.0" xmlns="http://www.w3.org/2000/svg"
 width="260.000000pt" height="260.000000pt" viewBox="0 0 260.000000 260.000000"
 preserveAspectRatio="xMidYMid meet">
<metadata>
Created by potrace 1.14, written by Peter Selinger 2001-2017
</metadata>
<g transform="translate(0.000000,260.000000) scale(0.100000,-0.100000)"
fill="#000000" stroke="none">
<path d="M1128 1941 c-38 -37 -68 -71 -68 -74 0 -4 160 -167 356 -363 l355
-355 356 355 c320 321 354 358 342 373 -22 28 -130 133 -136 133 -3 0 -131
-126 -285 -279 l-279 -280 -280 280 c-153 153 -283 279 -287 279 -4 -1 -37
-31 -74 -69z"/>
<path d="M430 1635 l-355 -355 75 -75 75 -75 281 281 281 281 158 -157 157
-157 -23 -24 -23 -25 357 -357 357 -357 357 357 358 358 -75 75 -76 76 -281
-282 -282 -282 -157 157 -157 157 24 25 23 25 -354 354 c-195 195 -357 355
-360 355 -3 0 -165 -160 -360 -355z"/>
<path d="M433 1105 c-194 -194 -353 -355 -353 -358 0 -9 138 -147 146 -147 4
0 132 126 286 280 l279 279 280 -280 c247 -247 282 -279 296 -267 23 18 133
130 133 134 0 4 -666 671 -696 696 -18 16 -32 3 -371 -337z"/>
</g>
</svg>
